<svg xmlns="http://www.w3.org/2000/svg" viewBox="0 0 500 500" width="100%" height="100%">
  <rect width="500" height="500" rx="60" fill="#1b365d"/>
  <g transform="translate(50, 110)">
    <!-- Flask Body 'I' -->
    <path d="M 60 40 H 120 M 80 40 V 80 L 40 170 C 34 184 42 195 56 195 H 124 C 138 195 146 184 140 170 L 100 80 V 40" stroke="#ffffff" stroke-width="18" stroke-linecap="round" stroke-linejoin="round" fill="none"/>
    <path d="M 34 195 H 146" stroke="#ffffff" stroke-width="18" stroke-linecap="round"/>

    <!-- Molecule inside Flask -->
    <line x1="64" y1="156" x2="88" y2="136" stroke="#1b365d" stroke-width="8" stroke-linecap="round"/>
    <line x1="64" y1="156" x2="72" y2="176" stroke="#1b365d" stroke-width="8" stroke-linecap="round"/>
    <line x1="88" y1="136" x2="72" y2="176" stroke="#1b365d" stroke-width="8" stroke-linecap="round"/>
    <circle cx="64" cy="156" r="11" fill="#1b365d"/>
    <circle cx="88" cy="136" r="11" fill="#1b365d"/>
    <circle cx="72" cy="176" r="11" fill="#1b365d"/>

    <!-- DNA Helix inside Flask -->
    <path d="M 96 176 Q 108 156 124 176" stroke="#1b365d" stroke-width="8" stroke-linecap="round" fill="none"/>
    <path d="M 96 156 Q 108 176 124 156" stroke="#1b365d" stroke-width="8" stroke-linecap="round" fill="none"/>

    <!-- Letter 'S' -->
    <path d="M 245 76 C 205 64 172 92 172 120 C 172 164 245 156 245 184 C 245 204 212 212 176 200" stroke="#ffffff" stroke-width="32" stroke-linecap="round" fill="none"/>

    <!-- Letter 'M' -->
    <path d="M 272 195 V 64 L 326 152 L 380 64 V 195" stroke="#ffffff" stroke-width="32" stroke-linecap="round" stroke-linejoin="round" fill="none"/>
  </g>
</svg>
